<svg width="172" height="36" viewBox="0 0 172 36" fill="none" xmlns="http://www.w3.org/2000/svg">
<path d="M40.2051 12.6484C40.2148 13.0586 40.332 13.4297 40.5566 13.7617C40.791 14.084 41.0938 14.3916 41.4648 14.6846C41.8457 14.9775 42.2754 15.2656 42.7539 15.5488C43.2324 15.8223 43.7207 16.1152 44.2188 16.4277C44.7266 16.7305 45.2197 17.0625 45.6982 17.4238C46.1768 17.7852 46.6064 18.1953 46.9873 18.6543C47.3682 19.1133 47.6758 19.6309 47.9102 20.207C48.1445 20.7832 48.2715 21.4375 48.291 22.1699V22.2871C48.291 23.0879 48.1934 23.7861 47.998 24.3818C47.8027 24.9775 47.5439 25.4902 47.2217 25.9199C46.8994 26.3496 46.5234 26.7061 46.0938 26.9893C45.6641 27.2627 45.21 27.4824 44.7314 27.6484C44.2627 27.8145 43.7842 27.9316 43.2959 28C42.8174 28.0684 42.3633 28.1074 41.9336 28.1172H41.7871C40.957 28.1172 40.2295 28.0342 39.6045 27.8682C38.9795 27.7021 38.4424 27.4824 37.9932 27.209C37.5439 26.9258 37.168 26.6035 36.8652 26.2422C36.5723 25.8809 36.3379 25.5098 36.1621 25.1289C35.9863 24.7383 35.8594 24.3525 35.7812 23.9717C35.7031 23.5908 35.6641 23.2344 35.6641 22.9023C35.6641 22.5605 35.7227 22.2627 35.8398 22.0088C35.957 21.7549 36.1084 21.5498 36.2939 21.3936C36.4893 21.2275 36.709 21.1055 36.9531 21.0273C37.207 20.9492 37.4707 20.9102 37.7441 20.9102C37.998 20.9102 38.2568 20.9492 38.5205 21.0273C38.7939 21.1055 39.0381 21.2275 39.2529 21.3936C39.4775 21.5498 39.6582 21.7549 39.7949 22.0088C39.9414 22.2529 40.0195 22.541 40.0293 22.873C40.0488 23.6055 40.2148 24.1084 40.5273 24.3818C40.8398 24.6455 41.2891 24.7773 41.875 24.7773C42.168 24.7676 42.4365 24.7334 42.6807 24.6748C42.9346 24.6064 43.1494 24.4941 43.3252 24.3379C43.501 24.1719 43.6377 23.957 43.7354 23.6934C43.8428 23.4199 43.8965 23.0781 43.8965 22.668C43.8965 22.1602 43.7793 21.7012 43.5449 21.291C43.3203 20.8809 43.0225 20.5 42.6514 20.1484C42.2803 19.7969 41.8555 19.4648 41.377 19.1523C40.8984 18.8301 40.4102 18.5127 39.9121 18.2002C39.4141 17.8779 38.9258 17.5459 38.4473 17.2041C37.9785 16.8525 37.5537 16.4717 37.1729 16.0615C36.792 15.6514 36.4844 15.1973 36.25 14.6992C36.0254 14.2012 35.9082 13.6348 35.8984 13V12.7656C35.9082 11.7207 36.0449 10.8516 36.3086 10.1582C36.582 9.46484 36.9775 8.91309 37.4951 8.50293C38.0225 8.09277 38.667 7.80469 39.4287 7.63867C40.1904 7.46289 41.0645 7.375 42.0508 7.375H42.4316C43.3301 7.375 44.0918 7.47266 44.7168 7.66797C45.3418 7.86328 45.8594 8.1123 46.2695 8.41504C46.6895 8.71777 47.0166 9.05957 47.251 9.44043C47.4951 9.82129 47.6758 10.1973 47.793 10.5684C47.9102 10.9395 47.9834 11.2861 48.0127 11.6084C48.042 11.9307 48.0566 12.1895 48.0566 12.3848C48.0566 12.6777 47.998 12.9463 47.8809 13.1904C47.7734 13.4248 47.6221 13.625 47.4268 13.791C47.2412 13.957 47.0166 14.0889 46.7529 14.1865C46.499 14.2744 46.2207 14.3184 45.918 14.3184C45.6836 14.3184 45.4492 14.2744 45.2148 14.1865C44.9805 14.0889 44.7705 13.9668 44.585 13.8203C44.3994 13.6738 44.248 13.5078 44.1309 13.3223C44.0137 13.127 43.9551 12.9316 43.9551 12.7363C43.9551 11.9355 43.8086 11.3789 43.5156 11.0664C43.2324 10.7539 42.8125 10.5977 42.2559 10.5977C41.9922 10.5977 41.7334 10.6123 41.4795 10.6416C41.2354 10.6709 41.0156 10.7539 40.8203 10.8906C40.6348 11.0176 40.4834 11.2178 40.3662 11.4912C40.2588 11.7646 40.2051 12.1504 40.2051 12.6484ZM53.0078 13.3516V10.7734C53.0078 10.3633 53.0273 9.96289 53.0664 9.57227C53.1152 9.18164 53.2178 8.83496 53.374 8.53223C53.5303 8.21973 53.7549 7.9707 54.0479 7.78516C54.3408 7.58984 54.7363 7.49219 55.2344 7.49219C55.7227 7.49219 56.1133 7.58984 56.4062 7.78516C56.6992 7.9707 56.9189 8.21973 57.0654 8.53223C57.2217 8.83496 57.3193 9.18164 57.3584 9.57227C57.4072 9.96289 57.4316 10.3633 57.4316 10.7734V13.3516H58.6328C58.8867 13.3516 59.1406 13.3662 59.3945 13.3955C59.6484 13.415 59.873 13.4834 60.0684 13.6006C60.2734 13.7178 60.4346 13.8936 60.5518 14.1279C60.6787 14.3623 60.7422 14.6895 60.7422 15.1094C60.7422 15.5098 60.6787 15.8271 60.5518 16.0615C60.4346 16.2959 60.2734 16.4717 60.0684 16.5889C59.873 16.7061 59.6484 16.7842 59.3945 16.8232C59.1406 16.8525 58.8867 16.8672 58.6328 16.8672H57.4316V21.9941C57.4316 22.1895 57.4365 22.3994 57.4463 22.624C57.4658 22.8389 57.5195 23.0391 57.6074 23.2246C57.6953 23.4102 57.8271 23.5664 58.0029 23.6934C58.1787 23.8105 58.4277 23.8691 58.75 23.8691C59.1016 23.8691 59.3994 23.8984 59.6436 23.957C59.8975 24.0059 60.1025 24.0986 60.2588 24.2354C60.4248 24.3721 60.5469 24.5625 60.625 24.8066C60.7031 25.0508 60.7422 25.3633 60.7422 25.7441C60.7422 26.1348 60.6494 26.4717 60.4639 26.7549C60.2881 27.0381 60.0488 27.2725 59.7461 27.458C59.4434 27.6436 59.0918 27.7803 58.6914 27.8682C58.291 27.9561 57.8711 28 57.4316 28C56.7383 28 56.1426 27.9268 55.6445 27.7803C55.1562 27.6338 54.7461 27.4287 54.4141 27.165C54.0918 26.8916 53.833 26.5693 53.6377 26.1982C53.4521 25.8174 53.3105 25.3926 53.2129 24.9238C53.125 24.4551 53.0664 23.9521 53.0371 23.415C53.0176 22.8682 53.0078 22.2969 53.0078 21.7012V16.8672H52.1875C51.9336 16.8672 51.6797 16.8525 51.4258 16.8232C51.1816 16.7842 50.9619 16.7061 50.7666 16.5889C50.5713 16.4717 50.4102 16.2959 50.2832 16.0615C50.166 15.8271 50.1074 15.5098 50.1074 15.1094C50.1074 14.6895 50.166 14.3623 50.2832 14.1279C50.4102 13.8936 50.5713 13.7178 50.7666 13.6006C50.9619 13.4834 51.1816 13.415 51.4258 13.3955C51.6797 13.3662 51.9336 13.3516 52.1875 13.3516H53.0078ZM75.6836 19.6504C75.6836 19.8066 75.6738 19.9922 75.6543 20.207C75.6348 20.4121 75.5566 20.6123 75.4199 20.8076C75.293 20.9932 75.0879 21.1543 74.8047 21.291C74.5215 21.4277 74.1211 21.4961 73.6035 21.4961H67.7734V22.9023C67.7734 23.1367 67.8027 23.3809 67.8613 23.6348C67.9199 23.8887 68.0176 24.123 68.1543 24.3379C68.3008 24.5527 68.4912 24.7285 68.7256 24.8652C68.96 25.002 69.248 25.0703 69.5898 25.0703C69.9805 25.0703 70.2783 25.0264 70.4834 24.9385C70.6982 24.8408 70.8643 24.7236 70.9814 24.5869C71.1084 24.4502 71.2207 24.3037 71.3184 24.1475C71.416 23.9912 71.543 23.8447 71.6992 23.708C71.8652 23.5713 72.0898 23.459 72.373 23.3711C72.666 23.2734 73.0664 23.2246 73.5742 23.2246C73.8184 23.2246 74.0527 23.2441 74.2773 23.2832C74.5117 23.3223 74.7168 23.3955 74.8926 23.5029C75.0684 23.6104 75.21 23.7617 75.3174 23.957C75.4248 24.1426 75.4785 24.3867 75.4785 24.6895C75.4785 25.3242 75.2783 25.8564 74.8779 26.2861C74.4775 26.7061 73.9746 27.043 73.3691 27.2969C72.7637 27.5508 72.1045 27.7314 71.3916 27.8389C70.6885 27.9463 70.0293 28 69.4141 28C68.6035 27.9902 67.832 27.8877 67.0996 27.6924C66.3672 27.4971 65.7178 27.1846 65.1514 26.7549C64.5947 26.3252 64.1504 25.7637 63.8184 25.0703C63.4863 24.377 63.3203 23.5273 63.3203 22.5215V19.0938C63.3203 18.166 63.4277 17.3799 63.6426 16.7354C63.8672 16.0908 64.1553 15.5537 64.5068 15.124C64.8584 14.6943 65.2539 14.3623 65.6934 14.1279C66.1328 13.8838 66.5771 13.7031 67.0264 13.5859C67.4756 13.4688 67.9004 13.3955 68.3008 13.3662C68.7109 13.3369 69.0625 13.3223 69.3555 13.3223C70.3418 13.3223 71.1816 13.4102 71.875 13.5859C72.5781 13.7617 73.1641 13.9912 73.6328 14.2744C74.1016 14.5576 74.4727 14.8848 74.7461 15.2559C75.0195 15.627 75.2246 16.0127 75.3613 16.4131C75.498 16.8037 75.5859 17.2041 75.625 17.6143C75.6641 18.0146 75.6836 18.3906 75.6836 18.7422V19.6504ZM67.7734 19.2988H71.4355C71.4355 18.8398 71.4209 18.4346 71.3916 18.083C71.3721 17.7217 71.2988 17.4189 71.1719 17.1748C71.0547 16.9307 70.8643 16.7451 70.6006 16.6182C70.3467 16.4912 69.9805 16.4277 69.502 16.4277C69.1016 16.4277 68.7842 16.4912 68.5498 16.6182C68.3252 16.7451 68.1543 16.9062 68.0371 17.1016C67.9199 17.2871 67.8467 17.4873 67.8174 17.7021C67.7881 17.917 67.7734 18.1074 67.7734 18.2734V19.2988ZM78.9648 10.7441C78.9648 10.334 78.9844 9.93359 79.0234 9.54297C79.0723 9.15234 79.1748 8.80566 79.3311 8.50293C79.4873 8.2002 79.7119 7.95605 80.0049 7.77051C80.2979 7.58496 80.6934 7.49219 81.1914 7.49219C81.6992 7.49219 82.0996 7.58496 82.3926 7.77051C82.6855 7.95605 82.9053 8.2002 83.0518 8.50293C83.208 8.80566 83.3057 9.15234 83.3447 9.54297C83.3936 9.93359 83.418 10.334 83.418 10.7441V24.7188C83.418 25.1289 83.3936 25.5342 83.3447 25.9346C83.3057 26.3252 83.208 26.6768 83.0518 26.9893C82.9053 27.292 82.6855 27.5361 82.3926 27.7217C82.0996 27.9072 81.6992 28 81.1914 28C80.6934 28 80.2979 27.9072 80.0049 27.7217C79.7119 27.5361 79.4873 27.292 79.3311 26.9893C79.1748 26.6768 79.0723 26.3252 79.0234 25.9346C78.9844 25.5342 78.9648 25.1289 78.9648 24.7188V10.7441ZM87.5488 10.7441C87.5488 10.334 87.5684 9.93359 87.6074 9.54297C87.6562 9.15234 87.7588 8.80566 87.915 8.50293C88.0713 8.2002 88.2959 7.95605 88.5889 7.77051C88.8818 7.58496 89.2773 7.49219 89.7754 7.49219C90.2832 7.49219 90.6836 7.58496 90.9766 7.77051C91.2695 7.95605 91.4893 8.2002 91.6357 8.50293C91.792 8.80566 91.8896 9.15234 91.9287 9.54297C91.9775 9.93359 92.002 10.334 92.002 10.7441V24.7188C92.002 25.1289 91.9775 25.5342 91.9287 25.9346C91.8896 26.3252 91.792 26.6768 91.6357 26.9893C91.4893 27.292 91.2695 27.5361 90.9766 27.7217C90.6836 27.9072 90.2832 28 89.7754 28C89.2773 28 88.8818 27.9072 88.5889 27.7217C88.2959 27.5361 88.0713 27.292 87.915 26.9893C87.7588 26.6768 87.6562 26.3252 87.6074 25.9346C87.5684 25.5342 87.5488 25.1289 87.5488 24.7188V10.7441ZM107.441 24.6895C107.441 25.0996 107.427 25.5049 107.397 25.9053C107.368 26.2959 107.28 26.6475 107.134 26.96C106.987 27.2725 106.768 27.5264 106.475 27.7217C106.182 27.9072 105.771 28 105.244 28C104.707 28 104.287 27.9121 103.984 27.7363C103.682 27.5508 103.457 27.3311 103.311 27.0771C103.164 26.8135 103.071 26.54 103.032 26.2568C103.003 25.9736 102.988 25.7344 102.988 25.5391C102.9 25.8223 102.773 26.1104 102.607 26.4033C102.451 26.6963 102.246 26.96 101.992 27.1943C101.738 27.4287 101.431 27.624 101.069 27.7803C100.718 27.9268 100.303 28 99.8242 28C99.2871 28 98.75 27.9121 98.2129 27.7363C97.6758 27.5605 97.1924 27.2676 96.7627 26.8574C96.333 26.4473 95.9814 25.915 95.708 25.2607C95.4443 24.5967 95.3125 23.7812 95.3125 22.8145V18.5664C95.3125 17.5898 95.4443 16.7744 95.708 16.1201C95.9814 15.4561 96.333 14.9238 96.7627 14.5234C97.1924 14.1133 97.6758 13.8203 98.2129 13.6445C98.75 13.4688 99.2871 13.3809 99.8242 13.3809C100.303 13.3809 100.718 13.4541 101.069 13.6006C101.431 13.7471 101.738 13.9375 101.992 14.1719C102.246 14.4062 102.451 14.6699 102.607 14.9629C102.773 15.2559 102.9 15.5488 102.988 15.8418C102.988 15.3535 103.057 14.9482 103.193 14.626C103.33 14.3037 103.506 14.0498 103.721 13.8643C103.936 13.6689 104.175 13.5371 104.438 13.4688C104.712 13.3906 104.98 13.3516 105.244 13.3516C105.732 13.3516 106.123 13.4492 106.416 13.6445C106.709 13.8301 106.929 14.0791 107.075 14.3916C107.231 14.6943 107.329 15.0508 107.368 15.4609C107.417 15.8613 107.441 16.2715 107.441 16.6914V24.6895ZM99.8242 22.4336C99.8242 22.6973 99.834 22.9561 99.8535 23.21C99.873 23.4639 99.9268 23.6934 100.015 23.8984C100.103 24.1035 100.229 24.2695 100.396 24.3965C100.571 24.5137 100.811 24.5723 101.113 24.5723C101.494 24.5723 101.802 24.4893 102.036 24.3232C102.28 24.1475 102.471 23.8838 102.607 23.5322C102.744 23.1709 102.837 22.7217 102.886 22.1846C102.944 21.6377 102.979 20.9883 102.988 20.2363C102.988 19.9336 102.959 19.5869 102.9 19.1963C102.852 18.7959 102.759 18.4199 102.622 18.0684C102.485 17.7168 102.295 17.4189 102.051 17.1748C101.807 16.9307 101.494 16.8086 101.113 16.8086C100.811 16.8086 100.571 16.8721 100.396 16.999C100.229 17.1162 100.103 17.2725 100.015 17.4678C99.9268 17.6631 99.873 17.8877 99.8535 18.1416C99.834 18.3857 99.8242 18.6348 99.8242 18.8887V22.4336ZM120.303 15.5488C120.303 16.3105 120.112 16.8672 119.731 17.2188C119.36 17.5703 118.828 17.7461 118.135 17.7461C118.037 17.7461 117.896 17.7559 117.71 17.7754C117.534 17.7852 117.344 17.8242 117.139 17.8926C116.934 17.9512 116.724 18.0439 116.509 18.1709C116.304 18.2881 116.113 18.4541 115.938 18.6689C115.762 18.874 115.62 19.1377 115.513 19.46C115.405 19.7822 115.352 20.168 115.352 20.6172V24.8066C115.352 25.207 115.327 25.5977 115.278 25.9785C115.239 26.3594 115.142 26.7012 114.985 27.0039C114.829 27.2969 114.604 27.5361 114.312 27.7217C114.019 27.9072 113.623 28 113.125 28C112.637 28 112.251 27.9072 111.968 27.7217C111.685 27.5361 111.465 27.2969 111.309 27.0039C111.162 26.7012 111.064 26.3594 111.016 25.9785C110.977 25.5977 110.957 25.207 110.957 24.8066V16.6035C110.957 16.1934 110.977 15.7979 111.016 15.417C111.064 15.0264 111.162 14.6797 111.309 14.377C111.465 14.0742 111.685 13.835 111.968 13.6592C112.251 13.4736 112.637 13.3809 113.125 13.3809C113.623 13.3809 114.004 13.4932 114.268 13.7178C114.541 13.9326 114.741 14.2158 114.868 14.5674C114.995 14.9092 115.068 15.2949 115.088 15.7246C115.107 16.1445 115.117 16.5547 115.117 16.9551H115.352C115.488 16.4082 115.669 15.915 115.894 15.4756C116.118 15.0264 116.367 14.6504 116.641 14.3477C116.914 14.0352 117.207 13.7959 117.52 13.6299C117.832 13.4639 118.145 13.3809 118.457 13.3809C118.838 13.3809 119.146 13.4248 119.38 13.5127C119.624 13.5908 119.814 13.7178 119.951 13.8936C120.088 14.0693 120.181 14.2939 120.229 14.5674C120.278 14.8408 120.303 15.168 120.303 15.5488Z" fill="#DF6A2D"/>
<path d="M130.394 14.89C130.654 13.91 130.784 13.09 130.784 12.43C130.784 11.77 130.604 11.23 130.244 10.81C129.884 10.37 129.414 10.15 128.834 10.15C128.274 10.15 127.804 10.43 127.424 10.99C127.044 11.55 126.854 12.19 126.854 12.91C126.854 14.31 127.654 15.51 129.254 16.51C130.854 17.55 131.944 18.3 132.524 18.76C133.104 19.22 133.514 19.64 133.754 20.02C134.354 21 134.654 22.01 134.654 23.05C134.654 24.85 134.044 26.29 132.824 27.37C131.624 28.43 130.264 28.96 128.744 28.96C126.944 28.96 125.434 28.2 124.214 26.68C123.334 25.58 122.524 24.21 121.784 22.57L124.694 21.16C125.154 22.36 125.724 23.38 126.404 24.22C127.104 25.04 127.844 25.45 128.624 25.45C129.124 25.45 129.574 25.29 129.974 24.97C130.374 24.65 130.574 24.17 130.574 23.53C130.574 22.87 130.324 22.26 129.824 21.7C129.324 21.14 128.654 20.57 127.814 19.99C126.974 19.41 126.324 18.94 125.864 18.58C125.404 18.2 124.894 17.72 124.334 17.14C123.274 16.02 122.744 14.59 122.744 12.85C122.744 11.09 123.354 9.62 124.574 8.44C125.794 7.24 127.244 6.64 128.924 6.64C130.604 6.64 132.014 7.29 133.154 8.59C134.314 9.89 134.894 11.23 134.894 12.61C134.894 13.97 134.634 15.14 134.114 16.12L130.394 14.89ZM141.002 15.79C141.922 14.65 142.822 14.08 143.702 14.08C144.602 14.08 145.332 14.38 145.892 14.98C146.872 16.02 147.362 17.34 147.362 18.94C147.362 21.84 147.252 24.87 147.032 28.03L143.552 27.7C143.692 24.76 143.762 21.87 143.762 19.03C143.762 17.97 143.492 17.44 142.952 17.44C142.312 17.44 141.622 18.84 140.882 21.64C140.842 23.64 140.742 25.91 140.582 28.45L137.072 28.12C137.332 24.68 137.462 20.84 137.462 16.6C137.462 12.36 137.392 8.95 137.252 6.37L140.762 6.7C140.922 9.52 141.002 12.55 141.002 15.79ZM152.546 22.6C152.546 24.86 153.046 25.99 154.046 25.99C154.486 25.99 154.856 25.36 155.156 24.1C155.456 22.82 155.606 21.6 155.606 20.44C155.606 17.88 155.186 16.6 154.346 16.6C153.806 16.6 153.366 17.29 153.026 18.67C152.706 20.03 152.546 21.34 152.546 22.6ZM149.036 22.33C149.036 20.47 149.416 18.65 150.176 16.87C150.576 15.97 151.136 15.24 151.856 14.68C152.596 14.1 153.416 13.81 154.316 13.81C155.216 13.81 155.986 14.02 156.626 14.44C157.286 14.84 157.786 15.38 158.126 16.06C158.786 17.4 159.116 18.86 159.116 20.44C159.116 22.62 158.666 24.56 157.766 26.26C156.886 27.94 155.646 28.78 154.046 28.78C150.706 28.78 149.036 26.63 149.036 22.33ZM164.521 15.85C165.321 14.63 166.311 14.02 167.491 14.02C168.671 14.02 169.591 14.5 170.251 15.46C170.911 16.42 171.241 17.68 171.241 19.24C171.241 21.56 170.741 23.67 169.741 25.57C168.761 27.47 167.711 28.42 166.591 28.42C165.791 28.42 165.101 28.32 164.521 28.12C164.561 30.88 164.631 33.29 164.731 35.35L161.221 34.99C161.121 31.39 161.071 27.57 161.071 23.53C161.071 19.47 161.211 15.97 161.491 13.03L164.611 13.36L164.521 15.85ZM165.421 25.42C165.981 25.42 166.501 24.87 166.981 23.77C167.481 22.67 167.731 21.57 167.731 20.47C167.731 19.35 167.631 18.49 167.431 17.89C167.231 17.27 167.001 16.96 166.741 16.96C166.301 16.96 165.911 17.22 165.571 17.74C165.251 18.26 164.911 19.01 164.551 19.99C164.531 21.03 164.521 22.63 164.521 24.79C164.821 25.21 165.121 25.42 165.421 25.42Z" fill="#1E96FC"/>
<path d="M1 10.5L6.9535 4.767C7.20468 4.52368 7.50338 4.33064 7.83239 4.199C8.1614 4.06736 8.51422 3.99973 8.8705 4H20.1295C20.4858 3.99973 20.8386 4.06736 21.1676 4.199C21.4966 4.33064 21.7953 4.52368 22.0465 4.767L28 10.5" stroke="black" stroke-width="2" stroke-linecap="round" stroke-linejoin="round"/>
<path d="M3.7 17V27.4C3.7 28.0895 3.98446 28.7508 4.49081 29.2384C4.99716 29.726 5.68391 30 6.4 30H22.6C23.3161 30 24.0028 29.726 24.5092 29.2384C25.0155 28.7508 25.3 28.0895 25.3 27.4V17" stroke="black" stroke-width="2" stroke-linecap="round" stroke-linejoin="round"/>
<path d="M18.55 30V24.8001C18.55 24.1105 18.2655 23.4492 17.7592 22.9616C17.2528 22.474 16.5661 22.2001 15.85 22.2001H13.15C12.4339 22.2001 11.7472 22.474 11.2408 22.9616C10.7345 23.4492 10.45 24.1105 10.45 24.8001V30" stroke="black" stroke-width="2" stroke-linecap="round" stroke-linejoin="round"/>
<path d="M1 10.5001H28" stroke="black" stroke-width="2" stroke-linecap="round" stroke-linejoin="round"/>
<path d="M28 10.5001V14.4001C28 15.0897 27.7155 15.751 27.2092 16.2386C26.7028 16.7262 26.0161 17.0001 25.3 17.0001C24.5112 16.9583 23.7579 16.6709 23.1535 16.1811C22.9924 16.069 22.7987 16.0087 22.6 16.0087C22.4013 16.0087 22.2076 16.069 22.0465 16.1811C21.4421 16.6709 20.6888 16.9583 19.9 17.0001C19.1112 16.9583 18.3579 16.6709 17.7535 16.1811C17.5924 16.069 17.3987 16.0087 17.2 16.0087C17.0013 16.0087 16.8076 16.069 16.6465 16.1811C16.0421 16.6709 15.2888 16.9583 14.5 17.0001C13.7112 16.9583 12.9579 16.6709 12.3535 16.1811C12.1924 16.069 11.9987 16.0087 11.8 16.0087C11.6013 16.0087 11.4076 16.069 11.2465 16.1811C10.6421 16.6709 9.88876 16.9583 9.1 17.0001C8.31124 16.9583 7.55794 16.6709 6.9535 16.1811C6.79242 16.069 6.59874 16.0087 6.4 16.0087C6.20126 16.0087 6.00758 16.069 5.8465 16.1811C5.24206 16.6709 4.48876 16.9583 3.7 17.0001C2.98392 17.0001 2.29716 16.7262 1.79081 16.2386C1.28446 15.751 1 15.0897 1 14.4001V10.5001" stroke="black" stroke-width="2" stroke-linecap="round" stroke-linejoin="round"/>
</svg>
